<?xml version="1.0" encoding="UTF-8" standalone="no"?>
<!-- Generator: Adobe Illustrator 19.2.1, SVG Export Plug-In . SVG Version: 6.00 Build 0)  -->

<svg
   xmlns:dc="http://purl.org/dc/elements/1.1/"
   xmlns:cc="http://creativecommons.org/ns#"
   xmlns:rdf="http://www.w3.org/1999/02/22-rdf-syntax-ns#"
   xmlns:svg="http://www.w3.org/2000/svg"
   xmlns="http://www.w3.org/2000/svg"
   xmlns:sodipodi="http://sodipodi.sourceforge.net/DTD/sodipodi-0.dtd"
   xmlns:inkscape="http://www.inkscape.org/namespaces/inkscape"
   version="1.1"
   id="Layer_1"
   x="0px"
   y="0px"
   viewBox="0 0 24 24"
   enable-background="new 0 0 16 16"
   xml:space="preserve"
   sodipodi:docname="icon-ticket-machine.svg"
   width="24"
   height="24"
   inkscape:version="0.92.2 5c3e80d, 2017-08-06"><metadata
     id="metadata55"><rdf:RDF><cc:Work
         rdf:about=""><dc:format>image/svg+xml</dc:format><dc:type
           rdf:resource="http://purl.org/dc/dcmitype/StillImage" /><dc:title></dc:title></cc:Work></rdf:RDF></metadata><defs
     id="defs53" /><sodipodi:namedview
     pagecolor="#ffffff"
     bordercolor="#666666"
     borderopacity="1"
     objecttolerance="10"
     gridtolerance="10"
     guidetolerance="10"
     inkscape:pageopacity="0"
     inkscape:pageshadow="2"
     inkscape:window-width="1268"
     inkscape:window-height="613"
     id="namedview51"
     showgrid="false"
     inkscape:zoom="14.75"
     inkscape:cx="8"
     inkscape:cy="8"
     inkscape:window-x="0"
     inkscape:window-y="0"
     inkscape:window-maximized="0"
     inkscape:current-layer="Layer_1" /><g
     id="g48"
     transform="scale(1.5)"><path
       d="M 0,1.98 C 0,0.9 0.9,0 1.98,0 h 12 C 15.1,0 16,0.9 16,1.98 v 12 C 16,15.1 15.1,16 13.98,16 h -12 C 0.9,16 0,15.1 0,13.98 Z"
       id="path2"
       inkscape:connector-curvature="0"
       style="fill:#007ac9" /><rect
       x="0.001"
       y="0.02"
       width="15.98"
       height="15.98"
       id="rect4"
       style="fill:none" /><path
       d="M 6.99,4.939 C 7.003,4.97 7.036,5.003 7.053,5.016 7.058,5.02 7.06,5.021 7.06,5.021 7.094,5.032 7.141,5.062 7.158,5.062 7.17,5.062 7.174,5.06 7.178,5.054 7.182,5.049 7.182,5.045 7.179,5.034 7.175,5.02 7.153,4.988 7.109,4.958 7.109,4.959 7.107,4.957 7.101,4.953 7.095,4.949 7.086,4.944 7.075,4.939 7.053,4.929 7.027,4.921 7.004,4.919 7.001,4.919 6.999,4.918 6.997,4.918 c -0.005,0 -0.009,10e-4 -0.013,10e-4 0,0.004 0.002,0.008 0.003,0.013 0.001,0.002 0.002,0.004 0.003,0.007"
       id="path6"
       inkscape:connector-curvature="0"
       style="fill:#ffffff" /><path
       d="M 7.116,4.476 C 7.123,4.477 7.124,4.477 7.124,4.477 7.162,4.477 7.186,4.469 7.196,4.46 7.205,4.45 7.204,4.446 7.2,4.439 7.196,4.431 7.191,4.427 7.17,4.417 7.151,4.409 7.117,4.4 7.08,4.4 H 7.072 C 7.067,4.401 7.059,4.402 7.05,4.403 7.033,4.406 7.013,4.414 7.005,4.426 7.002,4.429 6.999,4.433 6.998,4.437 7.005,4.442 7.012,4.447 7.019,4.45 7.053,4.468 7.098,4.476 7.116,4.476"
       id="path8"
       inkscape:connector-curvature="0"
       style="fill:#ffffff" /><path
       d="M 5.823,4.926 C 5.821,4.922 5.82,4.918 5.818,4.914 c -0.005,0 -0.009,0 -0.015,-10e-4 -0.002,0 -0.005,0 -0.007,10e-4 C 5.76,4.914 5.73,4.936 5.718,4.947 5.715,4.951 5.714,4.952 5.714,4.952 5.687,4.982 5.684,5.014 5.69,5.03 c 0.003,0.011 0.006,0.015 0.014,0.02 0.008,0.005 0.012,0.007 0.025,0.007 0.017,10e-4 0.05,-0.01 0.075,-0.04 0,0 0.008,-0.009 0.015,-0.026 C 5.825,4.975 5.829,4.953 5.825,4.933 5.824,4.931 5.823,4.928 5.823,4.926"
       id="path10"
       inkscape:connector-curvature="0"
       style="fill:#ffffff" /><path
       d="m 5.652,3.816 c 0,0 10e-4,0.001 0.006,0.005 C 5.662,3.824 5.67,3.829 5.679,3.834 5.697,3.846 5.722,3.859 5.748,3.869 5.756,3.872 5.764,3.875 5.773,3.877 5.776,3.874 5.778,3.871 5.779,3.869 5.785,3.855 5.767,3.83 5.755,3.82 L 5.751,3.816 C 5.724,3.794 5.693,3.777 5.672,3.77 5.649,3.761 5.642,3.761 5.633,3.761 5.624,3.761 5.618,3.762 5.617,3.77 5.616,3.777 5.626,3.794 5.652,3.816"
       id="path12"
       inkscape:connector-curvature="0"
       style="fill:#ffffff" /><path
       d="M 6.467,4.017 C 6.47,4.02 6.472,4.023 6.476,4.025 6.48,4.026 6.485,4.027 6.489,4.027 H 6.496 C 6.528,4.025 6.55,4.01 6.556,4.003 6.558,4 6.557,3.999 6.557,3.999 6.571,3.978 6.561,3.956 6.55,3.945 6.542,3.938 6.537,3.935 6.528,3.932 6.52,3.928 6.514,3.927 6.502,3.927 6.485,3.927 6.46,3.934 6.449,3.955 6.448,3.956 6.448,3.957 6.448,3.958 6.447,3.961 6.446,3.966 6.446,3.971 6.447,3.982 6.451,3.997 6.462,4.012 6.464,4.013 6.466,4.015 6.467,4.017"
       id="path14"
       inkscape:connector-curvature="0"
       style="fill:#ffffff" /><path
       d="M 3.26,3.821 H 3.217 c -0.249,0 -0.385,-0.213 -0.385,-0.384 0,-0.212 0.173,-0.384 0.385,-0.384 h 6.07 c 0.199,0 0.34,0.153 0.36,0.346 0.286,0.21 0.582,0.488 0.834,0.833 v -2.2 H 2.027 V 4.796 H 4.3 C 3.99,4.108 3.585,3.821 3.26,3.821"
       id="path16"
       inkscape:connector-curvature="0"
       style="fill:#ffffff" /><path
       d="M 6.552,5.548 C 6.476,5.548 6.396,5.51 6.337,5.447 6.288,5.396 6.253,5.33 6.235,5.255 6.225,5.207 6.223,5.164 6.23,5.124 6.16,5.099 6.107,5.081 6.039,5.058 6.03,5.09 6.016,5.121 5.994,5.15 L 5.991,5.154 C 5.933,5.222 5.855,5.259 5.77,5.259 5.706,5.259 5.639,5.236 5.585,5.196 5.532,5.156 5.491,5.1 5.475,5.041 5.452,4.961 5.47,4.881 5.525,4.815 5.548,4.791 5.572,4.771 5.599,4.757 5.558,4.71 5.523,4.673 5.473,4.622 5.435,4.639 5.389,4.647 5.339,4.648 5.259,4.648 5.184,4.632 5.114,4.601 5.035,4.568 4.969,4.513 4.938,4.455 4.899,4.383 4.914,4.305 4.976,4.261 5.02,4.231 5.083,4.216 5.163,4.216 h 0.01 C 5.213,4.217 5.254,4.223 5.296,4.232 5.294,4.21 5.292,4.191 5.289,4.171 5.237,4.16 5.181,4.144 5.124,4.122 5.022,4.079 4.949,4.035 4.901,3.989 4.849,3.939 4.836,3.879 4.867,3.834 4.9,3.787 4.967,3.778 5.018,3.778 c 0.08,0 0.173,0.018 0.271,0.053 L 5.297,3.834 C 5.357,3.855 5.41,3.882 5.454,3.912 L 5.507,3.895 C 5.493,3.886 5.48,3.877 5.469,3.867 L 5.465,3.865 C 5.403,3.814 5.375,3.771 5.374,3.728 5.373,3.705 5.382,3.682 5.4,3.664 5.425,3.639 5.468,3.625 5.527,3.625 5.595,3.625 5.68,3.641 5.755,3.669 5.826,3.695 5.889,3.73 5.937,3.769 5.972,3.8 5.994,3.829 6.006,3.858 6.087,3.875 6.146,3.887 6.217,3.902 6.218,3.891 6.222,3.879 6.226,3.868 6.258,3.807 6.317,3.779 6.405,3.778 c 0.054,0 0.118,0.012 0.177,0.034 0.064,0.023 0.12,0.057 0.154,0.093 0.058,0.06 0.072,0.132 0.038,0.194 C 6.765,4.113 6.754,4.124 6.742,4.135 6.787,4.17 6.827,4.202 6.884,4.25 6.916,4.235 6.956,4.227 7.002,4.226 7.077,4.226 7.148,4.241 7.215,4.268 7.293,4.299 7.36,4.353 7.393,4.408 7.435,4.478 7.425,4.558 7.37,4.605 7.328,4.641 7.266,4.66 7.19,4.66 H 7.182 C 7.144,4.658 7.107,4.652 7.07,4.642 7.069,4.675 7.068,4.706 7.066,4.745 7.113,4.758 7.159,4.779 7.206,4.808 L 7.213,4.813 C 7.298,4.87 7.357,4.939 7.383,5.012 7.405,5.076 7.396,5.142 7.359,5.19 7.324,5.236 7.263,5.262 7.197,5.262 7.117,5.262 7.031,5.23 6.948,5.169 L 6.939,5.163 C 6.924,5.15 6.878,5.114 6.837,5.056 L 6.709,5.111 C 6.732,5.145 6.749,5.182 6.76,5.22 6.781,5.303 6.776,5.374 6.745,5.434 6.71,5.504 6.636,5.548 6.554,5.548 Z M 7.328,3.89 C 7.335,3.874 7.354,3.847 7.414,3.847 h 0.451 c 0.376,0 0.665,0 1.129,0.002 0.072,0 0.173,0.04 0.23,0.089 C 9.275,3.982 9.272,4.017 9.266,4.035 9.26,4.051 9.242,4.078 9.184,4.078 H 9.182 C 8.595,4.074 8.283,4.073 7.74,4.072 H 7.577 C 7.507,4.072 7.412,4.032 7.361,3.981 7.317,3.939 7.322,3.906 7.328,3.89 M 9.702,4.434 C 9.742,4.484 9.734,4.522 9.725,4.54 9.711,4.57 9.678,4.587 9.634,4.587 v 0 C 9.071,4.583 8.507,4.579 7.944,4.577 7.869,4.575 7.778,4.523 7.738,4.459 7.707,4.41 7.718,4.375 7.727,4.358 7.736,4.341 7.76,4.313 7.819,4.313 h 0.037 c 0.541,0.003 1.081,0.006 1.622,0.01 0.076,10e-4 0.175,0.05 0.224,0.111 M 9.875,4.88 c 0.083,0.001 0.18,0.058 0.221,0.129 0.023,0.04 0.026,0.081 0.008,0.113 -0.018,0.032 -0.054,0.05 -0.1,0.05 C 9.409,5.17 8.814,5.168 8.219,5.167 8.138,5.166 8.05,5.106 8.02,5.029 8.004,4.988 8.006,4.949 8.027,4.918 8.048,4.888 8.082,4.872 8.125,4.872 8.71,4.874 9.292,4.877 9.875,4.88 m 1.362,2.499 C 11.143,6.302 10.863,5.441 10.482,4.783 V 4.78 C 10.477,4.772 10.472,4.765 10.468,4.758 10.339,4.54 10.201,4.345 10.054,4.172 10.05,4.168 10.046,4.164 10.042,4.159 9.969,4.074 9.895,3.995 9.818,3.921 9.815,3.918 9.812,3.916 9.81,3.913 9.547,3.662 9.267,3.473 8.983,3.348 H 3.299 v 0 c -0.053,0 -0.096,0.043 -0.096,0.096 0,0.039 0.031,0.093 0.132,0.093 0.553,0 1.022,0.559 1.322,1.225 0.35,0.774 0.646,1.893 0.646,3.419 H 6.257 C 6.26,8.005 6.264,7.828 6.277,7.659 6.289,7.501 6.42,7.379 6.579,7.379 Z"
       id="path18"
       inkscape:connector-curvature="0"
       style="fill:#ffffff" /><path
       d="M 6.814,4.45 C 6.662,4.31 6.581,4.244 6.418,4.127 6.196,4.075 6.087,4.051 5.872,4.005 5.747,4.048 5.676,4.073 5.546,4.117 c 0.016,0.104 0.02,0.172 0.018,0.3 0.145,0.135 0.217,0.21 0.352,0.372 0.211,0.067 0.316,0.103 0.511,0.168 L 6.805,4.799 C 6.818,4.651 6.819,4.577 6.814,4.45"
       id="path20"
       inkscape:connector-curvature="0"
       style="fill:#ffffff" /><path
       d="m 5.321,4.023 c 0.004,0 0.008,0 0.013,-10e-4 C 5.332,4.019 5.329,4.016 5.327,4.014 5.326,4.012 5.324,4.01 5.322,4.008 5.3,3.987 5.255,3.965 5.233,3.955 5.227,3.953 5.224,3.952 5.224,3.952 5.17,3.932 5.127,3.924 5.109,3.924 5.097,3.924 5.094,3.926 5.091,3.929 5.089,3.933 5.089,3.936 5.096,3.943 c 0.009,0.01 0.042,0.031 0.097,0.052 0,0 0.002,10e-4 0.009,0.004 0.008,0.002 0.018,0.005 0.031,0.009 0.024,0.007 0.055,0.014 0.078,0.015 0.003,0 0.007,0 0.01,0"
       id="path22"
       inkscape:connector-curvature="0"
       style="fill:#ffffff" /><path
       d="m 5.242,4.39 c -0.007,0 -0.009,0 -0.009,0 v 0 C 5.193,4.39 5.165,4.398 5.154,4.406 5.144,4.415 5.144,4.42 5.147,4.427 5.152,4.435 5.156,4.439 5.177,4.449 5.198,4.458 5.233,4.467 5.275,4.467 H 5.283 C 5.29,4.467 5.298,4.466 5.308,4.464 5.327,4.46 5.348,4.452 5.36,4.441 5.364,4.438 5.367,4.434 5.369,4.429 5.362,4.424 5.354,4.42 5.347,4.416 5.311,4.399 5.262,4.391 5.242,4.39"
       id="path24"
       inkscape:connector-curvature="0"
       style="fill:#ffffff" /><path
       d="M 6.547,5.234 C 6.545,5.229 6.541,5.219 6.537,5.21 6.527,5.19 6.512,5.168 6.491,5.151 6.484,5.146 6.478,5.141 6.472,5.137 6.468,5.141 6.463,5.146 6.46,5.151 6.444,5.175 6.444,5.216 6.447,5.234 6.448,5.24 6.448,5.242 6.448,5.242 6.458,5.279 6.475,5.309 6.49,5.324 6.506,5.339 6.513,5.34 6.522,5.341 6.532,5.341 6.538,5.339 6.547,5.324 6.554,5.309 6.56,5.28 6.55,5.241 c 0,0 0,-0.002 -0.003,-0.007"
       id="path26"
       inkscape:connector-curvature="0"
       style="fill:#ffffff" /><path
       d="M 9.63,10.038 C 9.612,10.026 9.578,10.015 9.537,10.015 c 0,0 -0.002,0 -0.009,0 -0.006,10e-4 -0.015,0.002 -0.025,0.005 -0.02,0.005 -0.045,0.015 -0.06,0.031 -0.005,0.005 -0.009,0.01 -0.012,0.017 0.006,0.006 0.012,0.012 0.018,0.016 0.031,0.024 0.078,0.034 0.098,0.036 0.008,0 0.009,0 0.009,0 0.041,0 0.07,-0.012 0.084,-0.024 0.014,-0.013 0.014,-0.02 0.013,-0.029 C 9.652,10.058 9.648,10.051 9.63,10.038"
       id="path28"
       inkscape:connector-curvature="0"
       style="fill:#ffffff" /><path
       d="m 8.119,10.698 c -10e-4,-0.005 -0.003,-0.01 -0.006,-0.015 -0.005,0 -0.01,0 -0.015,-10e-4 -0.003,0 -0.006,0 -0.008,0 -0.035,0.002 -0.066,0.027 -0.076,0.039 -0.003,0.005 -0.004,0.006 -0.004,0.006 -0.024,0.035 -0.023,0.072 -0.016,0.09 0.005,0.013 0.009,0.016 0.018,0.023 0.008,0.005 0.013,0.008 0.026,0.008 0.018,0 0.05,-0.012 0.072,-0.047 0,0 0.007,-0.01 0.012,-0.029 0.004,-0.019 0.007,-0.044 0,-0.068 -10e-4,10e-4 -10e-4,-0.003 -0.003,-0.006"
       id="path30"
       inkscape:connector-curvature="0"
       style="fill:#ffffff" /><path
       d="m 7.588,10.015 c -0.007,0 -0.008,0 -0.008,0 H 7.579 c -0.04,0 -0.07,0.012 -0.084,0.023 -0.014,0.013 -0.015,0.02 -0.013,0.03 0.002,0.009 0.005,0.016 0.023,0.029 0.019,0.012 0.052,0.024 0.094,0.024 0,0 0.003,0 0.008,0 C 7.614,10.12 7.623,10.119 7.633,10.117 7.653,10.111 7.677,10.1 7.692,10.085 7.697,10.08 7.701,10.074 7.704,10.068 7.699,10.062 7.692,10.057 7.686,10.052 7.656,10.027 7.609,10.017 7.588,10.015"
       id="path32"
       inkscape:connector-curvature="0"
       style="fill:#ffffff" /><path
       d="M 7.857,9.339 C 7.853,9.335 7.851,9.332 7.851,9.332 7.816,9.297 7.78,9.284 7.763,9.285 7.75,9.285 7.746,9.288 7.74,9.294 7.733,9.3 7.73,9.304 7.73,9.317 c 0,0.018 0.011,0.055 0.047,0.09 0,0 10e-4,0.002 0.007,0.006 0.006,0.005 0.013,0.01 0.022,0.016 0.019,0.011 0.045,0.022 0.068,0.023 h 0.008 c 0.005,0 0.009,0 0.015,-10e-4 0,-0.005 0,-0.009 0,-0.015 0,-0.003 0,-0.005 0,-0.008 C 7.895,9.393 7.869,9.355 7.857,9.339"
       id="path34"
       inkscape:connector-curvature="0"
       style="fill:#ffffff" /><path
       d="M 8.493,9.183 C 8.498,9.188 8.503,9.193 8.508,9.198 8.515,9.194 8.52,9.189 8.525,9.183 8.551,9.156 8.564,9.112 8.567,9.092 8.568,9.086 8.568,9.084 8.568,9.084 8.571,9.043 8.563,9.012 8.553,8.996 8.543,8.98 8.536,8.979 8.526,8.977 8.516,8.979 8.509,8.98 8.495,8.996 8.482,9.011 8.466,9.043 8.463,9.084 V 9.092 C 8.464,9.099 8.464,9.109 8.466,9.119 8.47,9.14 8.478,9.165 8.493,9.183"
       id="path36"
       inkscape:connector-curvature="0"
       style="fill:#ffffff" /><path
       d="M 9.274,9.294 C 9.267,9.288 9.263,9.286 9.25,9.285 9.232,9.285 9.195,9.297 9.159,9.333 H 9.158 C 9.157,9.334 9.156,9.336 9.155,9.339 9.15,9.344 9.145,9.352 9.139,9.361 9.127,9.38 9.117,9.405 9.116,9.429 v 0.008 c 0,0.005 0,0.009 0.001,0.015 0.004,10e-4 0.009,10e-4 0.013,10e-4 H 9.138 C 9.174,9.45 9.213,9.427 9.227,9.413 9.232,9.409 9.233,9.407 9.233,9.407 9.269,9.372 9.282,9.336 9.281,9.317 9.281,9.304 9.28,9.3 9.274,9.294"
       id="path38"
       inkscape:connector-curvature="0"
       style="fill:#ffffff" /><path
       d="m 12.649,10.911 c -0.022,0.031 -0.059,0.049 -0.103,0.049 h -1.885 c -0.088,0 -0.184,-0.07 -0.214,-0.155 -0.016,-0.046 -0.012,-0.092 0.012,-0.126 0.023,-0.033 0.062,-0.051 0.107,-0.051 h 1.885 c 0.086,0 0.179,0.069 0.21,0.155 0.016,0.047 0.012,0.094 -0.012,0.128 M 10.251,10.073 C 10.243,10.027 10.254,9.984 10.282,9.951 10.309,9.919 10.35,9.9 10.395,9.9 h 1.885 c 0.089,10e-4 0.171,0.072 0.187,0.163 0.008,0.047 -0.002,0.091 -0.03,0.124 -0.026,0.031 -0.065,0.049 -0.109,0.049 h -1.886 c -0.089,0 -0.175,-0.073 -0.191,-0.163 M 10.189,9.336 c 10e-4,-0.091 0.077,-0.165 0.17,-0.165 h 1.884 c 0.044,0 0.085,0.017 0.115,0.047 0.031,0.031 0.047,0.073 0.047,0.118 C 12.404,9.428 12.33,9.502 12.24,9.502 H 10.355 C 10.311,9.502 10.269,9.485 10.237,9.453 10.206,9.421 10.188,9.38 10.189,9.336 m -0.395,0.94 C 9.743,10.32 9.672,10.343 9.59,10.343 H 9.583 C 9.537,10.342 9.492,10.333 9.45,10.317 c -0.01,0.055 -0.017,0.102 -0.025,0.167 0.077,0.025 0.13,0.064 0.149,0.078 l 0.005,0.004 c 0.088,0.067 0.15,0.146 0.18,0.227 0.026,0.069 0.023,0.139 -0.008,0.19 C 9.719,11.036 9.657,11.068 9.586,11.068 9.501,11.067 9.407,11.031 9.314,10.966 L 9.305,10.959 c -0.027,-0.02 -0.078,-0.062 -0.122,-0.124 -0.049,0.023 -0.086,0.042 -0.131,0.064 0.031,0.038 0.057,0.079 0.076,0.122 l 0.003,0.006 c 0.036,0.083 0.046,0.155 0.031,0.215 -0.019,0.078 -0.088,0.13 -0.177,0.13 H 8.981 C 8.905,11.372 8.814,11.334 8.743,11.275 8.679,11.221 8.627,11.153 8.595,11.077 8.573,11.021 8.564,10.969 8.567,10.921 8.486,10.892 8.427,10.871 8.353,10.844 8.348,10.878 8.338,10.911 8.322,10.942 L 8.318,10.949 C 8.271,11.026 8.194,11.068 8.105,11.069 8.04,11.069 7.969,11.046 7.91,11.003 7.85,10.962 7.801,10.899 7.779,10.837 7.747,10.749 7.759,10.659 7.81,10.583 7.836,10.548 7.866,10.522 7.9,10.503 7.855,10.439 7.821,10.387 7.774,10.314 7.734,10.333 7.689,10.343 7.639,10.345 H 7.633 c -0.08,0 -0.156,-0.022 -0.222,-0.062 C 7.336,10.236 7.28,10.159 7.267,10.08 7.252,9.996 7.284,9.912 7.348,9.86 7.402,9.816 7.474,9.794 7.557,9.793 H 7.565 C 7.612,9.794 7.656,9.803 7.698,9.82 7.716,9.757 7.732,9.706 7.752,9.645 7.707,9.628 7.666,9.601 7.628,9.568 7.55,9.492 7.511,9.409 7.512,9.321 7.512,9.255 7.542,9.187 7.59,9.141 7.638,9.095 7.706,9.068 7.771,9.068 7.858,9.069 7.941,9.107 8.01,9.177 L 8.016,9.184 C 8.046,9.217 8.07,9.255 8.086,9.298 8.15,9.271 8.2,9.251 8.264,9.224 8.25,9.182 8.242,9.136 8.244,9.087 V 9.082 C 8.25,9 8.279,8.928 8.328,8.871 8.383,8.806 8.466,8.766 8.546,8.766 c 0.083,0 0.16,0.043 0.201,0.113 0.034,0.057 0.049,0.13 0.043,0.21 L 8.788,9.097 C 8.782,9.143 8.77,9.187 8.752,9.227 8.814,9.253 8.862,9.273 8.924,9.299 8.942,9.256 8.969,9.216 9.003,9.181 9.08,9.107 9.165,9.069 9.253,9.068 9.321,9.068 9.385,9.095 9.431,9.142 9.476,9.19 9.501,9.256 9.5,9.323 9.498,9.409 9.461,9.492 9.394,9.562 9.358,9.597 9.32,9.624 9.279,9.642 9.31,9.708 9.335,9.757 9.37,9.823 9.411,9.804 9.457,9.794 9.506,9.792 h 0.005 c 0.082,0 0.157,0.022 0.219,0.063 0.071,0.046 0.124,0.124 0.138,0.202 0.014,0.084 -0.014,0.168 -0.074,0.219 m 3.118,-1.909 c 0,-0.23 0.009,-0.458 0.025,-0.684 H 6.579 C 6.562,7.908 6.554,8.137 6.554,8.367 c 0,2.557 0.473,4.161 1.309,5.639 l 6.709,-0.003 c -1.032,-1.392 -1.66,-3.499 -1.66,-5.636"
       id="path40"
       inkscape:connector-curvature="0"
       style="fill:#ffffff" /><path
       d="M 8.506,9.4 C 8.322,9.477 8.224,9.517 8.044,9.594 7.979,9.778 7.951,9.874 7.906,10.062 c 0.112,0.192 0.175,0.289 0.308,0.476 0.211,0.078 0.323,0.119 0.537,0.197 C 8.906,10.659 8.99,10.619 9.148,10.543 9.169,10.359 9.186,10.257 9.229,10.072 9.12,9.885 9.066,9.783 8.979,9.595 8.789,9.518 8.691,9.477 8.506,9.4"
       id="path42"
       inkscape:connector-curvature="0"
       style="fill:#ffffff" /><path
       d="M 8.911,11.043 C 8.907,11.037 8.902,11.027 8.895,11.017 8.882,10.995 8.861,10.971 8.838,10.953 8.83,10.947 8.823,10.942 8.815,10.938 c -0.004,0.005 -0.008,0.009 -0.01,0.015 -0.013,0.026 -0.005,0.071 0.002,0.091 0.002,0.007 0.003,0.008 0.003,0.008 0.018,0.041 0.043,0.073 0.062,0.088 0.02,0.016 0.027,0.018 0.038,0.018 0.009,0 0.015,-0.002 0.021,-0.018 C 8.935,11.125 8.933,11.093 8.916,11.052 8.915,11.051 8.915,11.05 8.911,11.043"
       id="path44"
       inkscape:connector-curvature="0"
       style="fill:#ffffff" /><path
       d="m 9.348,10.683 c -0.006,0 -0.01,0 -0.015,10e-4 10e-4,0.005 0.003,0.01 0.005,0.015 0,0.003 0.001,0.006 0.003,0.008 0.013,0.036 0.052,0.075 0.071,0.09 0.005,0.005 0.007,0.006 0.008,0.006 0.035,0.027 0.089,0.048 0.107,0.047 0.012,0 0.015,-0.003 0.02,-0.008 0.003,-0.006 0.003,-0.011 0,-0.023 C 9.541,10.801 9.516,10.764 9.468,10.729 9.468,10.73 9.466,10.728 9.459,10.723 9.452,10.719 9.443,10.714 9.431,10.708 9.408,10.696 9.38,10.686 9.355,10.684 9.352,10.683 9.349,10.683 9.348,10.683"
       id="path46"
       inkscape:connector-curvature="0"
       style="fill:#ffffff" /></g></svg>