<?xml version="1.0" encoding="UTF-8" standalone="no"?>
<svg
   xmlns:dc="http://purl.org/dc/elements/1.1/"
   xmlns:cc="http://creativecommons.org/ns#"
   xmlns:rdf="http://www.w3.org/1999/02/22-rdf-syntax-ns#"
   xmlns:svg="http://www.w3.org/2000/svg"
   xmlns="http://www.w3.org/2000/svg"
   xmlns:sodipodi="http://sodipodi.sourceforge.net/DTD/sodipodi-0.dtd"
   xmlns:inkscape="http://www.inkscape.org/namespaces/inkscape"
   viewBox="0 0 24 24"
   version="1.1"
   id="svg6"
   sodipodi:docname="icon-ticket-machine-parking.svg"
   width="24"
   height="24"
   inkscape:version="0.92.2 5c3e80d, 2017-08-06">
  <metadata
     id="metadata12">
    <rdf:RDF>
      <cc:Work
         rdf:about="">
        <dc:format>image/svg+xml</dc:format>
        <dc:type
           rdf:resource="http://purl.org/dc/dcmitype/StillImage" />
        <dc:title></dc:title>
      </cc:Work>
    </rdf:RDF>
  </metadata>
  <defs
     id="defs10" />
  <sodipodi:namedview
     pagecolor="#ffffff"
     bordercolor="#666666"
     borderopacity="1"
     objecttolerance="10"
     gridtolerance="10"
     guidetolerance="10"
     inkscape:pageopacity="0"
     inkscape:pageshadow="2"
     inkscape:window-width="1018"
     inkscape:window-height="725"
     id="namedview8"
     showgrid="false"
     inkscape:zoom="14.75"
     inkscape:cx="8"
     inkscape:cy="8"
     inkscape:window-x="0"
     inkscape:window-y="0"
     inkscape:window-maximized="0"
     inkscape:current-layer="svg6" />
  <rect
     width="24"
     height="24"
     rx="3"
     ry="3"
     id="rect2"
     x="0"
     y="0"
     style="fill:#007ec0;stroke-width:1.49999988" />
  <path
     d="m 9.1695,12.669 q 0,-0.507 0.036,-0.99 A 0.48,0.48 0 0 1 9.684,11.2365 h 4.2195 V 2.7135 H 4.116 v 16.569 h 6.141 A 17.595,17.595 0 0 1 9.1695,12.669 Z M 5.055,3.675 h 7.911 v 6.57 H 5.055 Z m 0.408,11.091 a 0.435,0.435 0 1 1 0.435,-0.435 v 0.003 a 0.435,0.435 0 0 1 -0.435,0.435 z m 0,-1.2855 a 0.3105,0.3105 0 1 1 0.003,0.003 H 5.463 Z m 0,-1.287 a 0.435,0.435 0 1 1 0.435,-0.435 0.435,0.435 0 0 1 -0.4335,0.438 H 5.463 Z m 1.2555,2.5725 a 0.435,0.435 0 1 1 0.435,-0.435 v 0.003 a 0.435,0.435 0 0 1 -0.435,0.435 z m 0,-1.2855 a 0.435,0.435 0 1 1 0.435,-0.435 0.435,0.435 0 0 1 -0.435,0.438 z m 0,-1.287 a 0.435,0.435 0 1 1 0.435,-0.435 0.4365,0.4365 0 0 1 -0.435,0.438 z M 7.974,14.766 a 0.435,0.435 0 1 1 0.435,-0.435 v 0.003 a 0.435,0.435 0 0 1 -0.435,0.435 z m 0,-1.2855 A 0.435,0.435 0 1 1 8.409,13.0455 0.435,0.435 0 0 1 7.977,13.482 H 7.974 Z m 0,-1.287 a 0.435,0.435 0 1 1 0.435,-0.435 0.435,0.435 0 0 1 -0.4335,0.438 z m 3.7905,3.5565 a 0.195,0.195 0 0 1 0,0.0945 0.192,0.192 0 0 1 -0.015,0.0405 0.1245,0.1245 0 0 1 -0.1005,0.0645 0.0555,0.0555 0 0 1 -0.0375,-0.006 0.0645,0.0645 0 0 1 -0.0255,-0.033 0.1455,0.1455 0 0 1 0.0225,-0.126 l 0.006,-0.0075 a 0.1695,0.1695 0 0 1 0.1065,-0.0555 h 0.033 l 0.0075,0.021 v 0.0105 m -0.372,-1.908 -0.0075,-0.009 a 0.195,0.195 0 0 0 -0.123,-0.0675 0.042,0.042 0 0 0 -0.033,0.0135 0.039,0.039 0 0 0 -0.0135,0.033 0.1935,0.1935 0 0 0 0.066,0.1245 l 0.009,0.0075 0.0315,0.0225 a 0.2325,0.2325 0 0 0 0.0945,0.0345 h 0.012 a 0.09,0.09 0 0 0 0.021,0 0.1575,0.1575 0 0 0 0,-0.021 v -0.0105 a 0.255,0.255 0 0 0 -0.057,-0.126 M 12.279,13.629 12.3015,13.65 12.324,13.629 A 0.255,0.255 0 0 0 12.3825,13.5 V 13.4895 A 0.2025,0.2025 0 0 0 12.36,13.3665 C 12.345,13.344 12.336,13.341 12.321,13.341 c -0.015,0 -0.0225,0 -0.042,0.0255 a 0.2145,0.2145 0 0 0 -0.045,0.123 V 13.5 a 0.1275,0.1275 0 0 0 0.0045,0.0375 0.195,0.195 0 0 0 0.0375,0.09 M 11.019,14.79 h -0.015 a 0.189,0.189 0 0 0 -0.117,0.033 c -0.0195,0.0165 -0.0195,0.027 -0.018,0.0405 a 0.069,0.069 0 0 0 0.033,0.042 0.2475,0.2475 0 0 0 0.1305,0.033 h 0.012 l 0.036,-0.006 a 0.195,0.195 0 0 0 0.084,-0.045 l 0.018,-0.0225 -0.0255,-0.024 a 0.2865,0.2865 0 0 0 -0.135,-0.0495 m 1.845,1.44 -0.021,-0.039 a 0.363,0.363 0 0 0 -0.0855,-0.0885 0.192,0.192 0 0 0 -0.03,-0.0225 l -0.015,0.0225 a 0.195,0.195 0 0 0 0,0.126 l 0.0045,0.012 a 0.357,0.357 0 0 0 0.084,0.123 c 0.027,0.0225 0.0375,0.024 0.054,0.024 0.0165,0 0.0195,0 0.0285,-0.024 a 0.21,0.21 0 0 0 -0.021,-0.123 L 12.858,16.23 m 1.0035,-1.4025 a 0.24,0.24 0 0 0 -0.129,-0.033 H 13.728 l -0.036,0.0075 a 0.165,0.165 0 0 0 -0.084,0.042 0.084,0.084 0 0 0 -0.018,0.024 l 0.0255,0.0225 a 0.2925,0.2925 0 0 0 0.1365,0.051 h 0.0135 a 0.183,0.183 0 0 0 0.117,-0.033 c 0.0195,-0.018 0.021,-0.027 0.0195,-0.0405 -0.0015,-0.0135 -0.009,-0.024 -0.033,-0.042 m -0.3945,0.8955 h -0.021 l 0.006,0.021 v 0.0105 a 0.3525,0.3525 0 0 0 0.1005,0.126 l 0.0105,0.009 a 0.339,0.339 0 0 0 0.15,0.0645 c 0.0165,0 0.021,0 0.027,-0.0105 0.006,-0.0105 0.006,-0.015 0,-0.033 A 0.315,0.315 0 0 0 13.638,15.783 l -0.012,-0.0075 -0.039,-0.021 a 0.303,0.303 0 0 0 -0.105,-0.033 H 13.473 M 13.3695,13.782 a 0.0375,0.0375 0 0 0 -0.03,-0.0135 0.198,0.198 0 0 0 -0.1275,0.069 l -0.0075,0.0075 -0.0225,0.03 a 0.2385,0.2385 0 0 0 -0.0315,0.0945 v 0.012 a 0.18,0.18 0 0 0 0,0.021 h 0.03 a 0.237,0.237 0 0 0 0.1245,-0.057 l 0.009,-0.0075 a 0.1935,0.1935 0 0 0 0.066,-0.1245 0.0405,0.0405 0 0 0 -0.0105,-0.033 m -1.071,0.1485 c -0.255,0.105 -0.393,0.165 -0.645,0.27 a 5.121,5.121 0 0 0 -0.1935,0.6555 7.3095,7.3095 0 0 0 0.4305,0.663 c 0.294,0.1095 0.45,0.1695 0.7485,0.2745 l 0.555,-0.267 a 5.139,5.139 0 0 1 0.1125,-0.6585 6.9555,6.9555 0 0 1 -0.348,-0.666 c -0.264,-0.1065 -0.402,-0.165 -0.66,-0.2715 m 8.178,6.783 -9.003,0.0045 A 15.531,15.531 0 0 1 9.645,12.6675 c 0,-0.321 0.0105,-0.6405 0.0345,-0.9555 h 8.517 c -0.024,0.315 -0.036,0.6345 -0.036,0.9555 a 14.2335,14.2335 0 0 0 2.3175,8.043 m -6.276,-5.862 A 0.444,0.444 0 0 0 14.01,14.5665 0.561,0.561 0 0 0 13.704,14.481 h -0.0075 a 0.4905,0.4905 0 0 0 -0.189,0.0435 5.499,5.499 0 0 1 -0.129,-0.255 0.54,0.54 0 0 0 0.162,-0.111 0.495,0.495 0 0 0 0.147,-0.333 0.351,0.351 0 0 0 -0.096,-0.255 0.345,0.345 0 0 0 -0.249,-0.105 0.5085,0.5085 0 0 0 -0.348,0.159 0.5385,0.5385 0 0 0 -0.1095,0.165 l -0.24,-0.1005 a 0.6105,0.6105 0 0 0 0.0495,-0.1815 v -0.012 a 0.4965,0.4965 0 0 0 -0.06,-0.2925 0.324,0.324 0 0 0 -0.2805,-0.1575 0.408,0.408 0 0 0 -0.303,0.1455 0.5085,0.5085 0 0 0 -0.117,0.2955 v 0.006 a 0.5085,0.5085 0 0 0 0.03,0.1935 l -0.249,0.102 A 0.531,0.531 0 0 0 11.6175,13.6305 L 11.6085,13.62 a 0.468,0.468 0 0 0 -0.333,-0.153 0.3765,0.3765 0 0 0 -0.255,0.102 0.3555,0.3555 0 0 0 -0.1095,0.2535 0.471,0.471 0 0 0 0.162,0.345 0.561,0.561 0 0 0 0.1695,0.105 c -0.0285,0.0855 -0.051,0.156 -0.075,0.2445 a 0.57,0.57 0 0 0 -0.186,-0.0375 h -0.012 a 0.4665,0.4665 0 0 0 -0.291,0.093 0.324,0.324 0 0 0 -0.114,0.3075 0.441,0.441 0 0 0 0.2025,0.2835 0.579,0.579 0 0 0 0.3075,0.084 h 0.0105 a 0.4755,0.4755 0 0 0 0.1875,-0.045 c 0.0645,0.102 0.114,0.1755 0.1755,0.2655 a 0.405,0.405 0 0 0 -0.126,0.111 0.3855,0.3855 0 0 0 -0.0435,0.354 0.5085,0.5085 0 0 0 0.183,0.2325 0.489,0.489 0 0 0 0.273,0.0915 0.339,0.339 0 0 0 0.297,-0.1695 l 0.006,-0.0075 a 0.411,0.411 0 0 0 0.042,-0.138 l 0.3,0.108 a 0.5025,0.5025 0 0 0 0.039,0.219 0.741,0.741 0 0 0 0.2055,0.2745 0.555,0.555 0 0 0 0.333,0.135 0.24,0.24 0 0 0 0.2475,-0.18 0.468,0.468 0 0 0 -0.0435,-0.3 V 16.191 a 0.753,0.753 0 0 0 -0.105,-0.1695 l 0.1815,-0.09 a 0.7995,0.7995 0 0 0 0.1695,0.174 l 0.012,0.0105 A 0.693,0.693 0 0 0 13.7985,16.2585 0.264,0.264 0 0 0 14.028,16.14 0.3045,0.3045 0 0 0 14.04,15.8745 0.7305,0.7305 0 0 0 13.785,15.558 l -0.006,-0.006 a 0.7665,0.7665 0 0 0 -0.2085,-0.1065 c 0.012,-0.0915 0.021,-0.1575 0.036,-0.234 a 0.5805,0.5805 0 0 0 0.1845,0.0345 h 0.021 a 0.435,0.435 0 0 0 0.285,-0.093 0.327,0.327 0 0 0 0.105,-0.306 m 0.5145,-0.846 a 0.2325,0.2325 0 0 0 0.168,0.069 h 2.271 A 0.2325,0.2325 0 0 0 17.3865,13.839 0.228,0.228 0 0 0 17.319,13.6695 0.222,0.222 0 0 0 17.16,13.602 h -2.274 a 0.2355,0.2355 0 0 0 -0.237,0.231 0.231,0.231 0 0 0 0.0675,0.1635 m 0.285,1.098 h 2.2725 a 0.198,0.198 0 0 0 0.153,-0.069 0.21,0.21 0 0 0 0.042,-0.1695 0.2775,0.2775 0 0 0 -0.2625,-0.2265 H 14.937 a 0.201,0.201 0 0 0 -0.201,0.24 0.282,0.282 0 0 0 0.267,0.228 m 2.7345,0.762 a 0.339,0.339 0 0 0 -0.2925,-0.216 h -2.271 a 0.1785,0.1785 0 0 0 -0.15,0.072 0.1905,0.1905 0 0 0 -0.015,0.1755 0.339,0.339 0 0 0 0.3,0.2145 h 2.2695 a 0.1695,0.1695 0 0 0 0.144,-0.0675 0.195,0.195 0 0 0 0.015,-0.1785 M 7.4175,4.992 a 0.4455,0.4455 0 0 1 0.438,-0.453 h 1.572 a 1.7115,1.7115 0 0 1 1.938,1.7055 v 0.015 c 0,1.143 -0.918,1.74 -2.04,1.74 h -1.017 v 1.233 a 0.4485,0.4485 0 1 1 -0.8955,0 z M 9.354,7.1925 c 0.678,0 1.101,-0.3795 1.101,-0.9105 V 6.267 C 10.455,5.67 10.0245,5.3565 9.354,5.3565 H 8.31 v 1.836 z"
     id="path4"
     inkscape:connector-curvature="0"
     style="fill:#ffffff;stroke-width:1.49999988" />
</svg>
